grf
version=1
nRows=20
nColumns=46
inDegrees=yes
endheader
time	ground_force_1_vx	ground_force_1_vy	ground_force_1_vz	ground_force_1_px	ground_force_1_py	ground_force_1_pz	ground_moment_1_mx	ground_moment_1_my	ground_moment_1_mz	ground_force_2_vx	ground_force_2_vy	ground_force_2_vz	ground_force_2_px	ground_force_2_py	ground_force_2_pz	ground_moment_2_mx	ground_moment_2_my	ground_moment_2_mz	ground_force_3_vx	ground_force_3_vy	ground_force_3_vz	ground_force_3_px	ground_force_3_py	ground_force_3_pz	ground_moment_3_mx	ground_moment_3_my	ground_moment_3_mz	ground_force_4_vx	ground_force_4_vy	ground_force_4_vz	ground_force_4_px	ground_force_4_py	ground_force_4_pz	ground_moment_4_mx	ground_moment_4_my	ground_moment_4_mz	ground_force_5_vx	ground_force_5_vy	ground_force_5_vz	ground_force_5_px	ground_force_5_py	ground_force_5_pz	ground_moment_5_mx	ground_moment_5_my	ground_moment_5_mz
0.000000	0.000000	0.000000	0.000000	0.000000	0.000000	0.000000	0.000000	0.000000	0.000000	0.000000	0.000000	0.000000	0.000000	0.000000	0.000000	0.000000	0.000000	0.000000	0.000000	0.000000	0.000000	0.000000	0.000000	0.000000	0.000000	0.000000	0.000000	9.435545	632.717547	-178.571987	0.174608	0.000000	-0.844876	-0.000000	5.370867	-0.000000	-10.696929	633.334350	190.741189	0.215793	0.000000	-1.600722	-0.000000	-2.498771	-0.000000
0.000500	0.000000	0.000000	0.000000	0.000000	0.000000	0.000000	0.000000	0.000000	0.000000	0.000000	0.000000	0.000000	0.000000	0.000000	0.000000	0.000000	0.000000	0.000000	0.000000	0.000000	0.000000	0.000000	0.000000	0.000000	0.000000	0.000000	0.000000	9.483519	632.685632	-178.550298	0.174608	0.000000	-0.844869	-0.000000	5.379230	-0.000000	-10.637351	633.291062	190.710730	0.215795	0.000000	-1.600743	-0.000000	-2.492305	-0.000000
0.001000	0.000000	0.000000	0.000000	0.000000	0.000000	0.000000	0.000000	0.000000	0.000000	0.000000	0.000000	0.000000	0.000000	0.000000	0.000000	0.000000	0.000000	0.000000	0.000000	0.000000	0.000000	0.000000	0.000000	0.000000	0.000000	0.000000	0.000000	9.532936	632.649703	-178.527005	0.174608	0.000000	-0.844861	-0.000000	5.387630	-0.000000	-10.576135	633.243296	190.679620	0.215797	0.000000	-1.600764	-0.000000	-2.485782	-0.000000
0.001500	0.000000	0.000000	0.000000	0.000000	0.000000	0.000000	0.000000	0.000000	0.000000	0.000000	0.000000	0.000000	0.000000	0.000000	0.000000	0.000000	0.000000	0.000000	0.000000	0.000000	0.000000	0.000000	0.000000	0.000000	0.000000	0.000000	0.000000	9.583759	632.609565	-178.502069	0.174608	0.000000	-0.844853	-0.000000	5.396039	-0.000000	-10.513363	633.190860	190.647878	0.215800	0.000000	-1.600785	-0.000000	-2.479213	-0.000000
0.002000	0.000000	0.000000	0.000000	0.000000	0.000000	0.000000	0.000000	0.000000	0.000000	0.000000	0.000000	0.000000	0.000000	0.000000	0.000000	0.000000	0.000000	0.000000	0.000000	0.000000	0.000000	0.000000	0.000000	0.000000	0.000000	0.000000	0.000000	9.635947	632.565038	-178.475454	0.174607	0.000000	-0.844846	-0.000000	5.404431	-0.000000	-10.449116	633.133585	190.615525	0.215802	0.000000	-1.600805	-0.000000	-2.472610	-0.000000
0.002500	0.000000	0.000000	0.000000	0.000000	0.000000	0.000000	0.000000	0.000000	0.000000	0.000000	0.000000	0.000000	0.000000	0.000000	0.000000	0.000000	0.000000	0.000000	0.000000	0.000000	0.000000	0.000000	0.000000	0.000000	0.000000	0.000000	0.000000	9.689456	632.515965	-178.447124	0.174607	0.000000	-0.844838	-0.000000	5.412785	-0.000000	-10.383476	633.071322	190.582585	0.215804	0.000000	-1.600826	-0.000000	-2.465983	-0.000000
0.003000	0.000000	0.000000	0.000000	0.000000	0.000000	0.000000	0.000000	0.000000	0.000000	0.000000	0.000000	0.000000	0.000000	0.000000	0.000000	0.000000	0.000000	0.000000	0.000000	0.000000	0.000000	0.000000	0.000000	0.000000	0.000000	0.000000	0.000000	9.744241	632.462204	-178.417052	0.174607	0.000000	-0.844831	-0.000000	5.421078	0.000000	-10.316523	633.003944	190.549077	0.215807	0.000000	-1.600846	-0.000000	-2.459340	-0.000000
0.003500	0.000000	0.000000	0.000000	0.000000	0.000000	0.000000	0.000000	0.000000	0.000000	0.000000	0.000000	0.000000	0.000000	0.000000	0.000000	0.000000	0.000000	0.000000	0.000000	0.000000	0.000000	0.000000	0.000000	0.000000	0.000000	0.000000	0.000000	9.800250	632.403631	-178.385219	0.174607	0.000000	-0.844823	-0.000000	5.429293	0.000000	-10.248345	632.931343	190.515011	0.215809	0.000000	-1.600867	-0.000000	-2.452688	-0.000000
0.004000	0.000000	0.000000	0.000000	0.000000	0.000000	0.000000	0.000000	0.000000	0.000000	0.000000	0.000000	0.000000	0.000000	0.000000	0.000000	0.000000	0.000000	0.000000	0.000000	0.000000	0.000000	0.000000	0.000000	0.000000	0.000000	0.000000	0.000000	9.857434	632.340138	-178.351614	0.174606	0.000000	-0.844816	-0.000000	5.437411	0.000000	-10.179028	632.853428	190.480390	0.215812	0.000000	-1.600886	-0.000000	-2.446032	-0.000000
0.004500	0.000000	0.000000	0.000000	0.000000	0.000000	0.000000	0.000000	0.000000	0.000000	0.000000	0.000000	0.000000	0.000000	0.000000	0.000000	0.000000	0.000000	0.000000	0.000000	0.000000	0.000000	0.000000	0.000000	0.000000	0.000000	0.000000	0.000000	9.915739	632.271635	-178.316239	0.174606	0.000000	-0.844809	-0.000000	5.445416	0.000000	-10.108664	632.770129	190.445205	0.215815	0.000000	-1.600906	-0.000000	-2.439375	-0.000000
0.005000	0.000000	0.000000	0.000000	0.000000	0.000000	0.000000	0.000000	0.000000	0.000000	0.000000	0.000000	0.000000	0.000000	0.000000	0.000000	0.000000	0.000000	0.000000	0.000000	0.000000	0.000000	0.000000	0.000000	0.000000	0.000000	0.000000	0.000000	9.975110	632.198051	-178.279105	0.174606	0.000000	-0.844802	-0.000000	5.453296	0.000000	-10.037341	632.681391	190.409439	0.215818	0.000000	-1.600925	-0.000000	-2.432721	-0.000000
0.005500	0.000000	0.000000	0.000000	0.000000	0.000000	0.000000	0.000000	0.000000	0.000000	0.000000	0.000000	0.000000	0.000000	0.000000	0.000000	0.000000	0.000000	0.000000	0.000000	0.000000	0.000000	0.000000	0.000000	0.000000	0.000000	0.000000	0.000000	10.035486	632.119334	-178.240233	0.174605	0.000000	-0.844795	-0.000000	5.461040	0.000000	-9.965142	632.587170	190.373066	0.215820	0.000000	-1.600944	-0.000000	-2.426072	-0.000000
0.006000	0.000000	0.000000	0.000000	0.000000	0.000000	0.000000	0.000000	0.000000	0.000000	0.000000	0.000000	0.000000	0.000000	0.000000	0.000000	0.000000	0.000000	0.000000	0.000000	0.000000	0.000000	0.000000	0.000000	0.000000	0.000000	0.000000	0.000000	10.096801	632.035448	-178.199652	0.174605	0.000000	-0.844789	-0.000000	5.468636	0.000000	-9.892143	632.487433	190.336062	0.215823	0.000000	-1.600963	-0.000000	-2.419429	-0.000000
0.006500	0.000000	0.000000	0.000000	0.000000	0.000000	0.000000	0.000000	0.000000	0.000000	0.000000	0.000000	0.000000	0.000000	0.000000	0.000000	0.000000	0.000000	0.000000	0.000000	0.000000	0.000000	0.000000	0.000000	0.000000	0.000000	0.000000	0.000000	10.158986	631.946370	-178.157395	0.174605	0.000000	-0.844782	-0.000000	5.476075	0.000000	-9.818413	632.382158	190.298396	0.215827	0.000000	-1.600982	-0.000000	-2.412796	-0.000000
0.007000	0.000000	0.000000	0.000000	0.000000	0.000000	0.000000	0.000000	0.000000	0.000000	0.000000	0.000000	0.000000	0.000000	0.000000	0.000000	0.000000	0.000000	0.000000	0.000000	0.000000	0.000000	0.000000	0.000000	0.000000	0.000000	0.000000	0.000000	10.221969	631.852080	-178.113500	0.174604	0.000000	-0.844776	-0.000000	5.483349	0.000000	-9.744016	632.271337	190.260036	0.215830	0.000000	-1.601000	-0.000000	-2.406176	-0.000000
0.007500	0.000000	0.000000	0.000000	0.000000	0.000000	0.000000	0.000000	0.000000	0.000000	0.000000	0.000000	0.000000	0.000000	0.000000	0.000000	0.000000	0.000000	0.000000	0.000000	0.000000	0.000000	0.000000	0.000000	0.000000	0.000000	0.000000	0.000000	10.285679	631.752572	-178.068009	0.174604	0.000000	-0.844770	-0.000000	5.490448	0.000000	-9.669009	632.154975	190.220947	0.215833	0.000000	-1.601018	-0.000000	-2.399571	-0.000000
0.008000	0.000000	0.000000	0.000000	0.000000	0.000000	0.000000	0.000000	0.000000	0.000000	0.000000	0.000000	0.000000	0.000000	0.000000	0.000000	0.000000	0.000000	0.000000	0.000000	0.000000	0.000000	0.000000	0.000000	0.000000	0.000000	0.000000	0.000000	10.350042	631.647854	-178.020959	0.174604	0.000000	-0.844764	-0.000000	5.497366	0.000000	-9.593439	632.033090	190.181091	0.215836	0.000000	-1.601036	-0.000000	-2.392983	-0.000000
0.008500	0.000000	0.000000	0.000000	0.000000	0.000000	0.000000	0.000000	0.000000	0.000000	0.000000	0.000000	0.000000	0.000000	0.000000	0.000000	0.000000	0.000000	0.000000	0.000000	0.000000	0.000000	0.000000	0.000000	0.000000	0.000000	0.000000	0.000000	10.414983	631.537958	-177.972389	0.174603	0.000000	-0.844758	-0.000000	5.504095	0.000000	-9.517348	631.905717	190.140435	0.215840	0.000000	-1.601053	-0.000000	-2.386414	-0.000000
0.009000	0.000000	0.000000	0.000000	0.000000	0.000000	0.000000	0.000000	0.000000	0.000000	0.000000	0.000000	0.000000	0.000000	0.000000	0.000000	0.000000	0.000000	0.000000	0.000000	0.000000	0.000000	0.000000	0.000000	0.000000	0.000000	0.000000	0.000000	10.480429	631.422935	-177.922341	0.174603	0.000000	-0.844752	-0.000000	5.510626	0.000000	-9.440773	631.772914	190.098949	0.215843	0.000000	-1.601071	-0.000000	-2.379867	-0.000000
0.009500	0.000000	0.000000	0.000000	0.000000	0.000000	0.000000	0.000000	0.000000	0.000000	0.000000	0.000000	0.000000	0.000000	0.000000	0.000000	0.000000	0.000000	0.000000	0.000000	0.000000	0.000000	0.000000	0.000000	0.000000	0.000000	0.000000	0.000000	10.546305	631.302863	-177.870863	0.174603	0.000000	-0.844746	0.000000	5.516956	0.000000	-9.363754	631.634749	190.056611	0.215846	0.000000	-1.601088	-0.000000	-2.373343	-0.000000
